<?xml version="1.0" standalone="no"?>
<!DOCTYPE svg PUBLIC "-//W3C//DTD SVG 20010904//EN"
 "http://www.w3.org/TR/2001/REC-SVG-20010904/DTD/svg10.dtd">
<svg version="1.0" xmlns="http://www.w3.org/2000/svg"
 width="960.000000pt" height="960.000000pt" viewBox="0 0 960.000000 960.000000"
 preserveAspectRatio="xMidYMid meet">

<g transform="translate(0.000000,960.000000) scale(0.100000,-0.100000)"
fill="#000000" stroke="none">
<path d="M0 4800 l0 -4800 4800 0 4800 0 0 4800 0 4800 -4800 0 -4800 0 0
-4800z m4895 1888 c44 -11 104 -40 138 -66 51 -40 707 -694 754 -752 117 -145
123 -340 14 -485 -58 -77 -740 -753 -796 -790 -135 -86 -296 -86 -430 2 -22
14 -195 182 -385 373 -332 334 -429 437 -434 463 -2 7 -11 30 -21 52 -10 23
-19 71 -21 110 -2 60 -1 63 5 25 l8 -45 1 52 c1 28 -2 53 -7 55 -14 5 22 105
48 132 12 12 18 25 15 29 -3 3 171 183 387 400 430 431 439 438 569 455 66 9
83 8 155 -10z m-1795 -403 c19 -9 146 -128 282 -263 266 -265 290 -296 291
-393 1 -90 -31 -134 -287 -390 -262 -261 -299 -289 -395 -289 -100 0 -103 3
-463 368 -167 169 -202 213 -200 255 0 9 -3 17 -9 17 -14 0 -11 45 7 108 16
54 30 70 273 316 161 162 271 266 296 278 49 23 152 20 205 -7z m3586 -5 c48
-23 106 -77 305 -277 277 -279 286 -292 277 -406 -4 -44 -13 -75 -31 -103 -14
-21 -137 -150 -273 -285 -268 -265 -275 -269 -380 -269 -85 0 -118 25 -382
292 -136 137 -251 256 -256 266 -5 9 -13 20 -18 23 -5 3 -10 21 -12 41 -2 19
-6 40 -10 46 -3 6 -4 29 0 51 5 29 10 38 21 34 16 -6 43 24 42 47 0 9 -5 6
-11 -7 -10 -20 -38 -33 -38 -17 0 20 80 109 283 313 250 252 289 281 378 281
31 0 65 -10 105 -30z m-3566 -2385 l0 -385 -75 0 -75 0 0 385 0 385 75 0 75 0
0 -385z m1560 168 c1 -208 1 -217 18 -197 20 25 40 50 119 151 l57 73 88 0
c48 0 88 -4 88 -9 0 -5 -54 -70 -121 -145 -125 -142 -124 -141 -89 -176 3 -3
43 -48 89 -100 47 -52 96 -107 110 -122 l25 -28 -96 0 -95 0 -89 114 c-49 63
-92 115 -96 115 -5 1 -8 -51 -8 -114 l0 -115 -75 0 -75 0 0 385 0 385 75 0 75
0 0 -217z m2601 205 c2 -7 3 -181 1 -385 l-2 -373 -70 0 -70 0 0 385 0 385 69
0 c47 0 70 -4 72 -12z m-4550 -54 c79 -36 119 -95 119 -173 0 -42 -39 -109
-77 -133 -33 -20 -35 -23 -18 -32 79 -47 110 -104 103 -193 -5 -60 -26 -95
-78 -130 -53 -37 -95 -43 -287 -43 l-183 0 0 366 0 366 188 -4 c164 -3 193 -6
233 -24z m901 -140 c56 -19 102 -59 140 -117 32 -50 33 -55 33 -158 0 -100 -2
-108 -30 -154 -57 -92 -157 -145 -272 -145 -105 0 -203 61 -250 158 -24 49
-28 69 -28 142 0 70 4 93 24 130 74 143 225 200 383 144z m647 0 c57 -24 100
-62 126 -114 14 -27 25 -54 25 -60 0 -6 -29 -10 -70 -10 -70 0 -71 1 -109 40
-35 37 -42 40 -90 40 -47 0 -57 -4 -86 -33 -32 -32 -55 -88 -55 -135 0 -42 21
-108 43 -134 47 -54 155 -53 192 2 19 29 23 30 98 30 42 0 77 -2 77 -5 0 -3
-11 -28 -25 -54 -74 -147 -282 -188 -420 -83 -72 56 -99 115 -103 229 -4 81
-1 98 21 145 42 90 96 135 186 155 62 13 138 8 190 -13z m1296 1 c43 -18 99
-73 126 -125 21 -39 24 -59 24 -150 0 -95 -3 -110 -27 -156 -75 -142 -239
-186 -368 -99 l-50 34 0 -175 0 -175 -72 3 -73 3 0 425 0 425 73 3 72 3 0 -41
0 -42 42 36 c23 20 57 38 77 42 20 3 41 7 46 9 16 6 98 -7 130 -20z m626 4
c125 -32 213 -187 189 -334 -32 -199 -252 -304 -438 -209 -134 69 -188 242
-123 390 62 140 201 197 372 153z m651 0 c20 -5 56 -24 80 -42 149 -114 152
-346 6 -471 -53 -46 -103 -61 -203 -61 -67 1 -88 5 -131 27 -96 50 -146 136
-148 252 -1 91 18 155 61 206 82 96 194 126 335 89z"/>
<path d="M3747 5763 c-4 -3 -7 -11 -7 -17 0 -6 5 -5 12 2 6 6 9 14 7 17 -3 3
-9 2 -12 -2z"/>
<path d="M3736 5712 c-2 -4 -1 -32 4 -62 6 -46 8 -49 9 -18 0 20 4 45 7 55 5
15 4 16 -6 3 -10 -13 -11 -11 -7 8 5 22 2 29 -7 14z"/>
<path d="M3730 5535 c0 -5 5 -17 10 -25 5 -8 10 -10 10 -5 0 6 -5 17 -10 25
-5 8 -10 11 -10 5z"/>
<path d="M3790 5423 c0 -4 5 -15 10 -23 8 -13 10 -13 10 2 0 9 -4 20 -10 23
-5 3 -10 3 -10 -2z"/>
<path d="M2391 5554 c0 -11 3 -14 6 -6 3 7 2 16 -1 19 -3 4 -6 -2 -5 -13z"/>
<path d="M2360 5528 c0 -9 5 -20 10 -23 13 -8 13 5 0 25 -8 13 -10 13 -10 -2z"/>
<path d="M5965 5500 c10 -11 20 -18 23 -15 7 6 -18 35 -31 35 -5 0 -2 -9 8
-20z"/>
<path d="M2460 4030 l0 -90 83 0 c104 0 124 6 142 41 23 43 18 77 -14 110 -28
28 -33 29 -120 29 l-91 0 0 -90z"/>
<path d="M2460 3725 l0 -95 98 0 c111 0 134 10 152 64 13 41 -6 98 -38 115
-12 6 -64 11 -116 11 l-96 0 0 -95z"/>
<path d="M3452 3953 c-49 -24 -75 -68 -80 -134 -8 -112 39 -179 130 -186 62
-5 106 17 138 69 29 49 28 153 -3 199 -42 63 -119 85 -185 52z"/>
<path d="M5375 3956 c-62 -28 -95 -85 -95 -164 1 -164 206 -224 281 -82 25 46
25 134 0 180 -20 38 -89 80 -130 80 -14 -1 -39 -7 -56 -14z"/>
<path d="M6030 3952 c-93 -49 -108 -216 -26 -291 37 -34 118 -40 164 -12 52
33 72 76 72 152 0 52 -5 73 -23 100 -43 64 -121 85 -187 51z"/>
<path d="M6680 3952 c-90 -47 -108 -213 -30 -287 24 -23 41 -30 89 -33 58 -4
60 -3 103 36 l43 41 0 89 c0 82 -2 93 -25 117 -50 54 -120 69 -180 37z"/>
</g>
</svg>
